<svg width="28" height="28" viewBox="0 0 28 28" fill="none" xmlns="http://www.w3.org/2000/svg">
<path d="M2.33331 7.5C2.33331 5.61438 2.33331 4.67157 2.9191 4.08579C3.50489 3.5 4.44769 3.5 6.33331 3.5H21.6666C23.5523 3.5 24.4951 3.5 25.0809 4.08579C25.6666 4.67157 25.6666 5.61438 25.6666 7.5V8.5C25.6666 9.44281 25.6666 9.91421 25.3738 10.2071C25.0809 10.5 24.6095 10.5 23.6666 10.5H4.33331C3.3905 10.5 2.9191 10.5 2.62621 10.2071C2.33331 9.91421 2.33331 9.44281 2.33331 8.5V7.5Z" fill="#222222"/>
<path fill-rule="evenodd" clip-rule="evenodd" d="M5.54537 23.6213C4.66669 22.7426 4.66669 21.3284 4.66669 18.5V12.8333H23.3334V18.5C23.3334 21.3284 23.3334 22.7426 22.4547 23.6213C21.576 24.5 20.1618 24.5 17.3334 24.5H10.6667C7.83826 24.5 6.42405 24.5 5.54537 23.6213ZM11.6667 17.6666C11.1144 17.6666 10.6667 18.1144 10.6667 18.6666C10.6667 19.2189 11.1144 19.6666 11.6667 19.6666H16.3334C16.8856 19.6666 17.3334 19.2189 17.3334 18.6666C17.3334 18.1144 16.8856 17.6666 16.3334 17.6666H11.6667Z" fill="#222222"/>
</svg>
