<svg width="28" height="28" viewBox="0 0 28 28" fill="none" xmlns="http://www.w3.org/2000/svg">
<path d="M5.83333 9.33335V19.3334C5.83333 21.219 5.83333 22.1618 6.41912 22.7476C7.00491 23.3334 7.94771 23.3334 9.83333 23.3334H18.1667C20.0523 23.3334 20.9951 23.3334 21.5809 22.7476C22.1667 22.1618 22.1667 21.219 22.1667 19.3334V9.33335M5.83333 9.33335H22.1667M5.83333 9.33335H3.9C3.71144 9.33335 3.61716 9.33335 3.55858 9.27477C3.5 9.2162 3.5 9.12192 3.5 8.93335V8.66669C3.5 6.78107 3.5 5.83826 4.08579 5.25247C4.67157 4.66669 5.61438 4.66669 7.5 4.66669H20.5C22.3856 4.66669 23.3284 4.66669 23.9142 5.25247C24.5 5.83826 24.5 6.78107 24.5 8.66669V8.93335C24.5 9.12192 24.5 9.2162 24.4414 9.27477C24.3828 9.33335 24.2886 9.33335 24.1 9.33335H22.1667" stroke="#D3D0CA" stroke-width="2"/>
<path d="M11.6667 18.6667H16.3334" stroke="#D3D0CA" stroke-width="2" stroke-linecap="round"/>
</svg>
