<svg width="64" height="64" viewBox="0 0 64 64" fill="none" xmlns="http://www.w3.org/2000/svg">
<g clip-path="url(#clip0_283_1365)">
<path d="M50.7042 0.206299H13.6671C11.5623 0.206299 9.54357 1.04246 8.05519 2.53085C6.5668 4.01923 5.73064 6.03791 5.73064 8.14281V63.6984H58.6407V8.14281C58.6407 6.03791 57.8045 4.01923 56.3161 2.53085C54.8278 1.04246 52.8091 0.206299 50.7042 0.206299V0.206299ZM13.6671 5.4973H50.7042C51.4058 5.4973 52.0787 5.77603 52.5748 6.27215C53.071 6.76828 53.3497 7.44118 53.3497 8.14281V29.3068H11.0216V8.14281C11.0216 7.44118 11.3004 6.76828 11.7965 6.27215C12.2926 5.77603 12.9655 5.4973 13.6671 5.4973ZM11.0216 58.4074V34.5978H53.3497V58.4074H11.0216Z" fill="#B9B9B9"/>
<path d="M37.4771 16.0793H26.8951V21.3703H37.4771V16.0793Z" fill="#B9B9B9"/>
<path d="M37.4771 45.1799H26.8951V50.471H37.4771V45.1799Z" fill="#B9B9B9"/>
</g>
<defs>
<clipPath id="clip0_283_1365">
<rect width="63.4921" height="63.4921" fill="white" transform="translate(0.43924 0.206299)"/>
</clipPath>
</defs>
</svg>
