<svg xmlns="http://www.w3.org/2000/svg" width="32" height="24" viewBox="0 0 32 24" fill="none">
<path fill-rule="evenodd" clip-rule="evenodd" d="M18.5 20C20.582 20 22.5076 19.3302 24.073 18.1944L29.5459 23.6673L31.6672 21.546L26.1944 16.0731C27.3302 14.5077 28 12.582 28 10.5C28 5.25329 23.7467 1 18.5 1C13.2533 1 9 5.25329 9 10.5C9 15.7467 13.2533 20 18.5 20ZM18.5 17C22.0899 17 25 14.0899 25 10.5C25 6.91015 22.0899 4 18.5 4C14.9101 4 12 6.91015 12 10.5C12 14.0899 14.9101 17 18.5 17Z" fill="#222222"/>
<path d="M1 6.5H8V3.5H1V6.5Z" fill="#222222"/>
<path d="M8 18.5H1V15.5H8V18.5Z" fill="#222222"/>
<path d="M1 12.5H6V9.5H1V12.5Z" fill="#222222"/>
</svg>
