<svg width="28" height="28" viewBox="0 0 28 28" fill="none" xmlns="http://www.w3.org/2000/svg">
<path d="M17.3024 4.40949C17.9555 3.97412 18.282 3.75643 18.6378 3.79166C18.9935 3.82689 19.271 4.10439 19.826 4.65938L23.3406 8.17395C23.8956 8.72895 24.1731 9.00644 24.2083 9.36221C24.2435 9.71798 24.0259 10.0445 23.5905 10.6976L21.5155 13.8101C20.7139 15.0125 20.3131 15.6137 20.0276 16.2721C19.9929 16.3522 19.9595 16.4329 19.9274 16.5141C19.6637 17.1815 19.522 17.89 19.2386 19.307L19.0158 20.4211C18.971 20.6449 18.9486 20.7568 18.9186 20.8354C18.7111 21.3778 18.0867 21.6301 17.5607 21.3839C17.4845 21.3483 17.3907 21.2833 17.2031 21.1534C16.3186 20.5411 15.8764 20.235 15.4468 19.9178C12.6384 17.8439 10.1561 15.3616 8.08222 12.5531C7.76502 12.1236 7.45887 11.6814 6.84657 10.7969C6.71667 10.6093 6.65172 10.5155 6.61607 10.4393C6.3699 9.91324 6.62214 9.28886 7.16461 9.08141C7.24319 9.05136 7.35508 9.02898 7.57886 8.98422L8.69298 8.7614C10.11 8.478 10.8185 8.3363 11.4859 8.07255C11.5671 8.04047 11.6478 8.00706 11.7279 7.97233C12.3863 7.68688 12.9875 7.28609 14.1899 6.48451L17.3024 4.40949Z" fill="#222222" stroke="#222222" stroke-width="2"/>
<path d="M5.83331 22.1666L11.0833 16.9166" stroke="#222222" stroke-width="2" stroke-linecap="round"/>
</svg>
