<svg width="28" height="28" viewBox="0 0 28 28" fill="none" xmlns="http://www.w3.org/2000/svg">
<path fill-rule="evenodd" clip-rule="evenodd" d="M6.15352 11.8139C5.83331 12.5101 5.83331 13.3021 5.83331 14.8861V19.8333C5.83331 22.0331 5.83331 23.1331 6.51673 23.8165C7.15557 24.4553 8.15836 24.497 10.0833 24.4997V18.6667C10.0833 17.47 11.0534 16.5 12.25 16.5H15.75C16.9466 16.5 17.9166 17.47 17.9166 18.6667V24.4997C19.8416 24.497 20.8444 24.4553 21.4832 23.8165C22.1666 23.1331 22.1666 22.0331 22.1666 19.8333V14.8861C22.1666 13.3021 22.1666 12.5101 21.8464 11.8139C21.5262 11.1177 20.9249 10.6022 19.7222 9.57134L18.5555 8.57134C16.3816 6.70803 15.2947 5.77637 14 5.77637C12.7052 5.77637 11.6183 6.70803 9.44444 8.57134L8.27777 9.57134C7.07507 10.6022 6.47372 11.1177 6.15352 11.8139ZM15.9166 24.4999V18.6667C15.9166 18.5746 15.842 18.5 15.75 18.5H12.25C12.1579 18.5 12.0833 18.5746 12.0833 18.6667V24.4999H15.9166Z" fill="#222222"/>
</svg>
