<svg width="28" height="28" viewBox="0 0 28 28" fill="none" xmlns="http://www.w3.org/2000/svg">
<path d="M5.83331 14.8862C5.83331 13.3022 5.83331 12.5101 6.15352 11.8139C6.47372 11.1177 7.07507 10.6023 8.27777 9.5714L9.44444 8.5714C11.6183 6.70809 12.7052 5.77643 14 5.77643C15.2947 5.77643 16.3816 6.70809 18.5555 8.5714L19.7222 9.5714C20.9249 10.6023 21.5262 11.1177 21.8464 11.8139C22.1666 12.5101 22.1666 13.3022 22.1666 14.8862V19.8333C22.1666 22.0332 22.1666 23.1332 21.4832 23.8166C20.7998 24.5 19.6999 24.5 17.5 24.5H10.5C8.30009 24.5 7.20015 24.5 6.51673 23.8166C5.83331 23.1332 5.83331 22.0332 5.83331 19.8333V14.8862Z" stroke="#D3D0CA" stroke-width="2"/>
<path d="M16.9166 24.5V18.5C16.9166 17.9477 16.4689 17.5 15.9166 17.5H12.0833C11.531 17.5 11.0833 17.9477 11.0833 18.5V24.5" stroke="#D3D0CA" stroke-width="2" stroke-linecap="round" stroke-linejoin="round"/>
</svg>
