<svg width="69" height="23" viewBox="0 0 69 23" fill="none" xmlns="http://www.w3.org/2000/svg">
<path d="M0.492085 14.8281C0.492085 12.6589 1.14508 10.888 2.45107 9.51562C3.91201 7.98828 5.81565 7.22461 8.16201 7.22461C9.88857 7.22461 11.3274 7.56771 12.4784 8.25391C13.6516 8.98438 14.2382 9.83659 14.2382 10.8105C14.2382 10.9876 14.216 11.1647 14.1718 11.3418C13.9061 12.1829 13.2089 12.6035 12.08 12.6035C11.5487 12.6035 11.1282 12.4928 10.8183 12.2715C10.4198 11.9837 10.1542 11.3307 10.0214 10.3125C9.95498 9.89193 9.89964 9.5931 9.85537 9.41602C9.63401 8.50846 9.03636 8.05469 8.0624 8.05469C7.57542 8.05469 7.15484 8.1543 6.80068 8.35352C5.6275 9.06185 5.04091 11.2754 5.04091 14.9941C5.04091 16.8535 5.22906 18.2923 5.60537 19.3105C6.11448 20.6829 7.13271 21.3691 8.66005 21.3691C9.23557 21.3691 9.81109 21.2806 10.3866 21.1035C11.8697 20.6387 12.9211 19.7422 13.5409 18.4141L14.4042 18.6465C14.1828 19.222 13.8619 19.7533 13.4413 20.2402C12.2017 21.6348 10.4309 22.332 8.1288 22.332C6.64573 22.332 5.32867 22.0553 4.17763 21.502C1.7206 20.2845 0.492085 18.0599 0.492085 14.8281ZM22.1751 21.1367C22.3079 21.1367 22.4296 21.1478 22.5403 21.1699C22.828 21.2142 22.9719 21.4909 22.9719 22H13.7083V21.1367C14.328 21.1367 14.8261 21.0924 15.2024 21.0039C15.9329 20.8047 16.2981 20.2513 16.2981 19.3438V1.28125H13.7083V0.417969H20.5149V21.1367H22.1751ZM27.7545 14.7949C27.7545 16.8757 27.8873 18.3919 28.1529 19.3438C28.5514 20.7604 29.4368 21.4688 30.8092 21.4688C31.5839 21.4688 32.2148 21.2363 32.7018 20.7715C33.5429 19.9303 33.9635 17.8939 33.9635 14.6621C33.9635 12.6478 33.8307 11.1758 33.5651 10.2461C33.1666 8.80729 32.2591 8.08789 30.8424 8.08789C30.0013 8.08789 29.3483 8.34245 28.8834 8.85156C28.1308 9.71484 27.7545 11.696 27.7545 14.7949ZM31.0084 7.22461C32.9121 7.22461 34.539 7.74479 35.8893 8.78516C37.638 10.1797 38.5123 12.1165 38.5123 14.5957C38.5123 16.4551 37.9589 18.0931 36.8522 19.5098C35.3691 21.3913 33.3216 22.332 30.7096 22.332C28.8059 22.332 27.1679 21.7565 25.7955 20.6055C24.069 19.1445 23.2057 17.1634 23.2057 14.6621C23.2057 12.8913 23.7148 11.3418 24.733 10.0137C26.194 8.1543 28.2858 7.22461 31.0084 7.22461ZM47.0801 21.1367C47.2129 21.1367 47.3346 21.1478 47.4453 21.1699C47.733 21.2142 47.8769 21.4909 47.8769 22H38.9785V21.1367C40.6165 21.1367 41.4577 20.5612 41.5019 19.4102V8.58594H38.8125V7.72266H41.5019V7.29102C41.5019 5.98503 41.7343 4.84505 42.1992 3.87109C43.3281 1.45833 45.6966 0.251953 49.3047 0.251953C50.9648 0.251953 52.3926 0.517578 53.5879 1.04883C55.0045 1.71289 55.7129 2.55404 55.7129 3.57227C55.7129 3.83789 55.6575 4.08138 55.5468 4.30273C55.2148 5.07747 54.5729 5.46484 53.6211 5.46484C53.0677 5.46484 52.5807 5.3431 52.1601 5.09961C51.6953 4.78971 51.2636 4.10352 50.8652 3.04102C50.7324 2.73112 50.6328 2.50977 50.5664 2.37695C50.1679 1.4694 49.5703 1.01562 48.7734 1.01562C47.8437 1.01562 47.1465 1.28125 46.6816 1.8125C46.0397 2.60938 45.7187 4.52409 45.7187 7.55664V7.72266H55.5801V21.1367H56.8086C56.9414 21.1367 57.0631 21.1478 57.1738 21.1699C57.4616 21.2142 57.6054 21.4909 57.6054 22H49.6367V21.1367C49.9687 21.1367 50.2565 21.1035 50.5 21.0371C51.0755 20.8822 51.3633 20.3398 51.3633 19.4102V8.58594H45.7187V21.1367H47.0801ZM57.2415 8.75195V7.88867H59.5326V4.73438L63.7494 4.03711V7.88867H68.1322V8.75195H63.7494V18.8125C63.7494 19.1003 63.7715 19.377 63.8158 19.6426C63.9928 20.7936 64.4909 21.3691 65.3099 21.3691C65.4427 21.3691 65.5755 21.3581 65.7083 21.3359C66.5716 21.1589 67.2246 20.1738 67.6673 18.3809L68.5638 18.5137C68.3867 19.4212 68.1432 20.1517 67.8333 20.7051C67.1914 21.8118 66.0182 22.3652 64.3138 22.3652C64.0482 22.3652 63.7826 22.3542 63.5169 22.332C60.8607 22.0221 59.5326 20.2624 59.5326 17.0527V8.75195H57.2415Z" fill="#333333"/>
</svg>
