<svg width="141" height="29" viewBox="0 0 141 29" fill="none" xmlns="http://www.w3.org/2000/svg">
<path d="M15.758 1C15.758 1 18.5046 1.12 23.998 1.36L24.238 8.64H22.958L21.598 3.4C20.158 2.78667 18.4513 2.48 16.478 2.48C13.2513 2.48 10.5713 3.54667 8.43797 5.68C6.3313 7.78667 5.27797 10.8667 5.27797 14.92C5.27797 18.9733 6.30464 21.9733 8.35797 23.92C10.438 25.84 13.0913 26.8 16.318 26.8C18.478 26.8 20.4113 26.48 22.118 25.84L23.598 21.24L24.718 21.28L24.478 27.28C21.4113 27.92 18.7713 28.24 16.558 28.24C14.3713 28.24 12.558 28.12 11.118 27.88C9.70464 27.64 8.31797 27.2133 6.95797 26.6C5.59797 25.9867 4.43797 25.2 3.47797 24.24C2.54464 23.28 1.78464 22.04 1.19797 20.52C0.63797 18.9733 0.35797 17.0933 0.35797 14.88C0.35797 12.6667 0.784637 10.6267 1.63797 8.76C2.51797 6.86666 3.70464 5.37333 5.19797 4.28C8.15797 2.09333 11.678 1 15.758 1ZM28.2383 1.28H39.3183V2.24L35.8383 2.6V26.72L45.9183 26.6L47.7983 22.04H48.8383L48.3583 28H28.2383V27.04L31.7183 26.68V2.6L28.2383 2.24V1.28ZM78.0583 14.56C78.0583 18.56 76.845 21.88 74.4183 24.52C71.9916 27.1333 68.7383 28.44 64.6583 28.44C60.5783 28.44 57.3116 27.1333 54.8583 24.52C52.4316 21.88 51.2183 18.56 51.2183 14.56C51.2183 10.56 52.4316 7.25333 54.8583 4.64C57.3116 2 60.5783 0.679999 64.6583 0.679999C68.7383 0.679999 71.9916 2 74.4183 4.64C76.845 7.25333 78.0583 10.56 78.0583 14.56ZM64.6983 27.2C70.3516 27.2 73.1783 22.9867 73.1783 14.56C73.1783 10.5067 72.525 7.38667 71.2183 5.2C69.9383 3.01333 67.7516 1.92 64.6583 1.92C61.565 1.92 59.365 3.01333 58.0583 5.2C56.7516 7.36 56.0983 10.48 56.0983 14.56C56.0983 22.9867 58.965 27.2 64.6983 27.2ZM88.9261 15.48V26.68L92.4061 27.04V28H81.3261V27.04L84.8061 26.68V2.64L81.3261 2.16V1.28H100.726L100.766 6.96H99.7261L98.3661 2.72L88.9261 2.6V14.04H97.2461L98.4861 11.08H99.2861V18.52H98.4461L97.2461 15.48H88.9261ZM115.024 28H103.944V27.04L107.424 26.68V2.6L103.944 2.24V1.28H115.024V2.24L111.544 2.6V26.68L115.024 27.04V28ZM140.843 7.36H139.643L138.283 2.76L131.203 2.68V26.68L134.923 27.04V28H123.363V27.04L127.083 26.68V2.68L120.003 2.76L118.643 7.36H117.483V1.32L129.163 1.24L140.843 1.32V7.36Z" fill="white"/>
</svg>
